<?xml version="1.0"?>
<svg xmlns="http://www.w3.org/2000/svg" id="Capa_1" enable-background="new 0 0 512 512" height="512px" viewBox="0 0 512 512" width="512px"><g><path d="m413.383 124.25h-69.405c-5.271-26.621-19.277-50.899-39.89-68.921-22.48-19.655-51.325-30.479-81.221-30.479-68.08 0-123.467 55.386-123.467 123.466v9.066h-17.35c-45.242.001-82.05 36.808-82.05 82.052 0 45.242 36.808 82.05 82.05 82.05h29.551c4.143 0 7.5-3.357 7.5-7.5s-3.357-7.5-7.5-7.5h-29.551c-36.972 0-67.05-30.078-67.05-67.05s30.078-67.051 67.05-67.051h74.55c4.143 0 7.5-3.357 7.5-7.5s-3.357-7.5-7.5-7.5h-42.2v-9.066c0-59.809 48.658-108.467 108.467-108.467 53.565 0 99.677 39.881 107.333 92.795.744 5.118 1.133 10.35 1.133 15.671 0 10.555-1.511 20.983-4.491 30.995-1.182 3.97 1.079 8.146 5.049 9.328.714.212 1.435.313 2.143.313 3.232 0 6.216-2.106 7.186-5.362 3.394-11.401 5.114-23.27 5.114-35.274 0-3.05-.12-6.072-.339-9.066h67.389c46.106 0 83.617 37.511 83.617 83.617s-37.511 83.616-83.617 83.616h-271.784c-4.143 0-7.5 3.357-7.5 7.5s3.357 7.5 7.5 7.5h271.783c54.378 0 98.617-44.239 98.617-98.616 0-54.378-44.239-98.617-98.617-98.617z" fill="#F9F9F9"/><path d="m90.333 404.316c-13.271 0-24.066-10.796-24.066-24.066 0-2.889.526-5.747 1.565-8.496.137-.362.302-.713.493-1.05l15.485-27.288c1.332-2.348 3.823-3.799 6.522-3.799s5.19 1.45 6.522 3.798l15.486 27.288c.191.337.356.688.493 1.051 1.039 2.749 1.565 5.607 1.565 8.496.002 13.271-10.794 24.066-24.065 24.066zm-8.634-26.788c-.287.897-.433 1.811-.433 2.722 0 4.999 4.067 9.066 9.066 9.066 5 0 9.067-4.067 9.067-9.066 0-.911-.146-1.824-.433-2.722l-8.635-15.216z" fill="#F9F9F9"/><path d="m173.167 487.15c-13.271 0-24.067-10.797-24.067-24.067 0-2.888.526-5.745 1.564-8.495.138-.362.303-.714.494-1.052l15.486-27.288c1.332-2.347 3.823-3.798 6.522-3.798 2.699 0 5.19 1.451 6.522 3.799l15.485 27.288c.191.337.356.688.494 1.051 1.038 2.75 1.564 5.607 1.564 8.495.002 13.271-10.793 24.067-24.064 24.067zm-8.635-26.789c-.287.897-.433 1.812-.433 2.722 0 5 4.067 9.067 9.067 9.067 4.999 0 9.066-4.067 9.066-9.067 0-.91-.146-1.824-.433-2.723l-8.634-15.215z" fill="#F9F9F9"/><path d="m338.833 487.15c-13.271 0-24.066-10.797-24.066-24.067 0-2.888.526-5.745 1.564-8.495.138-.362.303-.714.494-1.051l15.485-27.288c1.332-2.348 3.823-3.799 6.522-3.799s5.19 1.45 6.522 3.798l15.486 27.288c.191.338.356.689.494 1.052 1.038 2.75 1.564 5.607 1.564 8.495.002 13.271-10.794 24.067-24.065 24.067zm-8.634-26.79c-.287.898-.433 1.813-.433 2.723 0 5 4.067 9.067 9.066 9.067 5 0 9.067-4.067 9.067-9.067 0-.91-.146-1.824-.433-2.722l-8.635-15.216z" fill="#F9F9F9"/><path d="m421.667 404.316c-13.271 0-24.067-10.796-24.067-24.066 0-2.889.526-5.747 1.565-8.496.137-.362.302-.714.493-1.051l15.486-27.288c1.332-2.347 3.823-3.798 6.522-3.798 2.699 0 5.19 1.451 6.522 3.799l15.485 27.288c.191.337.356.688.493 1.05 1.039 2.749 1.565 5.607 1.565 8.496.002 13.271-10.793 24.066-24.064 24.066zm-8.635-26.788c-.287.897-.433 1.811-.433 2.722 0 4.999 4.067 9.066 9.067 9.066 4.999 0 9.066-4.067 9.066-9.066 0-.911-.146-1.824-.433-2.722l-8.634-15.216z" fill="#F9F9F9"/><path d="m256 404.316c-13.271 0-24.066-10.796-24.066-24.066 0-2.889.526-5.747 1.565-8.496.137-.362.302-.713.493-1.05l15.485-27.288c1.332-2.349 3.823-3.799 6.522-3.799s5.19 1.45 6.522 3.799l15.485 27.288c.191.337.356.688.493 1.05 1.039 2.749 1.565 5.607 1.565 8.496.002 13.271-10.793 24.066-24.064 24.066zm-8.634-26.788c-.287.897-.433 1.811-.433 2.722 0 4.999 4.067 9.066 9.066 9.066s9.066-4.067 9.066-9.066c0-.911-.146-1.824-.433-2.722l-8.632-15.215z" fill="#F9F9F9"/></g></svg>
