<?xml version="1.0"?>
<svg xmlns="http://www.w3.org/2000/svg" id="Capa_1" enable-background="new 0 0 512 512" height="512px" viewBox="0 0 512 512" width="512px"><g><path d="m113.767 189.801c3.674 1.932 8.217.521 10.15-3.151 25.901-49.223 76.512-79.801 132.084-79.801 71.327 0 132.91 50.742 146.432 120.652.695 3.593 3.842 6.089 7.37 6.089.473 0 .953-.045 1.435-.138 4.075-.788 6.739-4.73 5.951-8.805-14.888-76.965-82.677-132.827-161.189-132.827-61.169 0-116.877 33.655-145.384 87.832-1.933 3.673-.522 8.217 3.151 10.149z" fill="#F9F9F9"/><path d="m412.665 248.485c-4.15 0-7.515 3.364-7.515 7.515 0 82.242-66.909 149.151-149.151 149.151-4.15 0-7.515 3.365-7.515 7.515s3.365 7.515 7.515 7.515c90.529 0 164.18-73.651 164.18-164.18.001-4.151-3.363-7.516-7.514-7.516z" fill="#F9F9F9"/><path d="m227.508 402.434c-69.914-13.52-120.659-75.104-120.659-146.434 0-14.592 2.101-29.01 6.245-42.851 1.19-3.975-1.068-8.164-5.044-9.354-3.974-1.19-8.164 1.068-9.354 5.044-4.562 15.24-6.876 31.108-6.876 47.161 0 78.516 55.865 146.306 132.835 161.19.482.093.962.138 1.435.138 3.528 0 6.675-2.497 7.37-6.09.788-4.074-1.877-8.016-5.952-8.804z" fill="#F9F9F9"/><path d="m48.696 247.983h-41.181c-4.15 0-7.515 3.364-7.515 7.515 0 4.15 3.364 7.515 7.515 7.515h41.181c4.15 0 7.515-3.365 7.515-7.515s-3.365-7.515-7.515-7.515z" fill="#F9F9F9"/><path d="m255.498 455.789c-4.15 0-7.515 3.365-7.515 7.515v41.181c0 4.15 3.364 7.515 7.515 7.515 4.15 0 7.515-3.365 7.515-7.515v-41.181c0-4.15-3.365-7.515-7.515-7.515z" fill="#F9F9F9"/><path d="m504.485 247.983h-41.182c-4.15 0-7.515 3.364-7.515 7.515 0 4.15 3.365 7.515 7.515 7.515h41.182c4.15 0 7.515-3.365 7.515-7.515s-3.365-7.515-7.515-7.515z" fill="#F9F9F9"/><path d="m255.498 56.211c4.15 0 7.515-3.364 7.515-7.515v-41.181c0-4.15-3.365-7.515-7.515-7.515s-7.515 3.365-7.515 7.515v41.182c0 4.149 3.365 7.514 7.515 7.514z" fill="#F9F9F9"/><path d="m104.455 114.373c1.467 1.467 3.39 2.201 5.314 2.201 1.923 0 3.846-.734 5.314-2.201 2.935-2.934 2.935-7.693 0-10.627l-29.12-29.12c-2.934-2.934-7.693-2.934-10.627 0-2.935 2.935-2.935 7.693 0 10.627z" fill="#F9F9F9"/><path d="m103.746 396.917-29.12 29.12c-2.935 2.934-2.935 7.693 0 10.627 1.467 1.467 3.39 2.201 5.314 2.201s3.846-.734 5.314-2.201l29.12-29.12c2.935-2.934 2.935-7.693 0-10.627-2.936-2.934-7.694-2.934-10.628 0z" fill="#F9F9F9"/><path d="m408.254 396.917c-2.934-2.934-7.693-2.934-10.627 0-2.935 2.935-2.935 7.693 0 10.627l29.12 29.12c1.467 1.467 3.39 2.201 5.314 2.201 1.923 0 3.846-.734 5.314-2.201 2.935-2.935 2.935-7.693 0-10.627z" fill="#F9F9F9"/><path d="m402.231 116.574c1.923 0 3.846-.734 5.314-2.201l29.12-29.12c2.935-2.934 2.935-7.693 0-10.627s-7.693-2.934-10.627 0l-29.12 29.12c-2.935 2.934-2.935 7.693 0 10.627 1.466 1.467 3.39 2.201 5.313 2.201z" fill="#F9F9F9"/></g></svg>
