<?xml version="1.0"?>
<svg xmlns="http://www.w3.org/2000/svg" width="512px" height="512px" viewBox="0 0 128 128"><g><path d="M78.125,78.88V14.125a14.125,14.125,0,0,0-28.25,0V78.88a26.593,26.593,0,1,0,28.25,0ZM64,3.5A10.638,10.638,0,0,1,74.625,14.125V69.25h-4.5V14.125a6.125,6.125,0,0,0-12.25,0V69.25h-4.5V14.125A10.638,10.638,0,0,1,64,3.5Zm2.625,65.75h-5.25V14.125a2.625,2.625,0,0,1,5.25,0ZM64,124.5A23.091,23.091,0,0,1,52.5,81.386l.877-.5V72.75h21.25v8.131l.877.5A23.091,23.091,0,0,1,64,124.5Z" fill="#F9F9F9"/><path d="M64,82.815a18.593,18.593,0,1,0,18.593,18.592A18.613,18.613,0,0,0,64,82.815ZM64,116.5a15.093,15.093,0,1,1,15.093-15.093A15.11,15.11,0,0,1,64,116.5Z" fill="#F9F9F9"/></g></svg>
