<?xml version="1.0"?>
<svg xmlns="http://www.w3.org/2000/svg" height="512px" viewBox="0 -46 512 512" width="512px"><path d="m212 150c0-33.089844-26.910156-60-60-60s-60 26.910156-60 60h30c0-16.539062 13.460938-30 30-30s30 13.460938 30 30-13.460938 30-30 30h-152v30h152c33.089844 0 60-26.910156 60-60zm0 0" fill="#F9F9F9"/><path d="m422 240h-422v30h422c33.089844 0 60 26.910156 60 60s-26.910156 60-60 60-60-26.910156-60-60h-30c0 49.628906 40.371094 90 90 90s90-40.371094 90-90-40.371094-90-90-90zm0 0" fill="#F9F9F9"/><path d="m0 300h182v30h-182zm0 0" fill="#F9F9F9"/><path d="m272 105c0-41.351562 33.648438-75 75-75s75 33.648438 75 75h30c0-57.890625-47.109375-105-105-105s-105 47.109375-105 105 47.109375 105 105 105h165v-30h-165c-41.351562 0-75-33.648438-75-75zm0 0" fill="#F9F9F9"/></svg>
